{
    "asset" : {
        "generator" : "Khronos glTF Blender I/O v3.2.43",
        "version" : "2.0"
    },
    "extensionsUsed" : [
        "KHR_lights_punctual"
    ],
    "extensionsRequired" : [
        "KHR_lights_punctual"
    ],
    "extensions" : {
        "KHR_lights_punctual" : {
            "lights" : [
                {
                    "color" : [
                        0.07469647377729416,
                        0.32866835594177246,
                        1
                    ],
                    "intensity" : 2,
                    "type" : "point",
                    "name" : "Point"
                },
                {
                    "color" : [
                        1,
                        0.16174210608005524,
                        0.24126923084259033
                    ],
                    "intensity" : 3,
                    "type" : "point",
                    "name" : "Point.001"
                },
                {
                    "color" : [
                        1,
                        0.0005437033833004534,
                        0.29033681750297546
                    ],
                    "intensity" : 1,
                    "type" : "point",
                    "name" : "Point.002"
                },
                {
                    "color" : [
                        0.962501049041748,
                        0.329614520072937,
                        1
                    ],
                    "intensity" : 2,
                    "type" : "point",
                    "name" : "Point.003"
                },
                {
                    "color" : [
                        1,
                        0.9913397431373596,
                        0.9258406758308411
                    ],
                    "intensity" : 1,
                    "type" : "point",
                    "name" : "Point.004"
                },
                {
                    "color" : [
                        1,
                        0.9913397431373596,
                        0.9258406758308411
                    ],
                    "intensity" : 1,
                    "type" : "point",
                    "name" : "Point.005"
                },
                {
                    "color" : [
                        1,
                        1,
                        1
                    ],
                    "intensity" : 0.8,
                    "type" : "directional",
                    "name" : "Sun"
                }
            ]
        }
    },
    "scene" : 0,
    "scenes" : [
        {
            "name" : "Scene",
            "nodes" : [
                0,
                1,
                2,
                3,
                4,
                5,
                6,
                7,
                8
            ]
        }
    ],
    "nodes" : [
        {
            "camera" : 0,
            "name" : "TEXTCAMERA",
            "translation" : [
                0.26863640546798706,
                -1.036698818206787,
                6.566174030303955
            ]
        },
        {
            "mesh" : 0,
            "name" : "NEEL",
            "translation" : [
                0.15193606913089752,
                -1.2976258993148804,
                -0.09095708280801773
            ]
        },
        {
            "extensions" : {
                "KHR_lights_punctual" : {
                    "light" : 0
                }
            },
            "name" : "Point",
            "rotation" : [
                -0.7071068286895752,
                0,
                0,
                0.7071068286895752
            ],
            "translation" : [
                0.3669919967651367,
                -0.7051479816436768,
                1.2261269092559814
            ]
        },
        {
            "extensions" : {
                "KHR_lights_punctual" : {
                    "light" : 1
                }
            },
            "name" : "Point.001",
            "rotation" : [
                -0.7071068286895752,
                0,
                0,
                0.7071068286895752
            ],
            "translation" : [
                0.3669919967651367,
                1.541619062423706,
                1.2261269092559814
            ]
        },
        {
            "extensions" : {
                "KHR_lights_punctual" : {
                    "light" : 2
                }
            },
            "name" : "Point.002",
            "rotation" : [
                -0.7071068286895752,
                0,
                0,
                0.7071068286895752
            ],
            "translation" : [
                -1.6681580543518066,
                -0.7051479816436768,
                1.2261269092559814
            ]
        },
        {
            "extensions" : {
                "KHR_lights_punctual" : {
                    "light" : 3
                }
            },
            "name" : "Point.003",
            "rotation" : [
                -0.7071068286895752,
                0,
                0,
                0.7071068286895752
            ],
            "translation" : [
                1.9860700368881226,
                -0.8609784245491028,
                1.9619057178497314
            ]
        },
        {
            "extensions" : {
                "KHR_lights_punctual" : {
                    "light" : 4
                }
            },
            "name" : "Point.004",
            "rotation" : [
                -0.7071068286895752,
                0,
                0,
                0.7071068286895752
            ],
            "translation" : [
                1.9860700368881226,
                1.9294309616088867,
                1.9619057178497314
            ]
        },
        {
            "extensions" : {
                "KHR_lights_punctual" : {
                    "light" : 5
                }
            },
            "name" : "Point.005",
            "rotation" : [
                -0.7071068286895752,
                0,
                0,
                0.7071068286895752
            ],
            "translation" : [
                -1.8467274904251099,
                2.0874617099761963,
                1.1905968189239502
            ]
        },
        {
            "extensions" : {
                "KHR_lights_punctual" : {
                    "light" : 6
                }
            },
            "name" : "Sun",
            "rotation" : [
                -0.44129478931427,
                -0.1435679942369461,
                0.40040522813796997,
                0.7901409864425659
            ],
            "translation" : [
                -3.2594146728515625,
                2.864267587661743,
                2.113095283508301
            ]
        }
    ],
    "cameras" : [
        {
            "name" : "Camera.001",
            "orthographic" : {
                "xmag" : 5.500000476837158,
                "ymag" : 5.500000476837158,
                "zfar" : 1000,
                "znear" : 0.10000000149011612
            },
            "type" : "orthographic"
        }
    ],
    "materials" : [
        {
            "doubleSided" : true,
            "name" : "SVGMat",
            "pbrMetallicRoughness" : {
                "baseColorFactor" : [
                    0,
                    0,
                    0,
                    1
                ],
                "metallicFactor" : 0,
                "roughnessFactor" : 0.4000000059604645
            }
        }
    ],
    "meshes" : [
        {
            "name" : "Curve",
            "primitives" : [
                {
                    "attributes" : {
                        "POSITION" : 0,
                        "NORMAL" : 1,
                        "TEXCOORD_0" : 2
                    },
                    "indices" : 3,
                    "material" : 0
                }
            ]
        }
    ],
    "accessors" : [
        {
            "bufferView" : 0,
            "componentType" : 5126,
            "count" : 7105,
            "max" : [
                2.309274196624756,
                1.2303959131240845,
                0.16799801588058472
            ],
            "min" : [
                -2.47110915184021,
                -1.190153956413269,
                -0.16722264885902405
            ],
            "type" : "VEC3"
        },
        {
            "bufferView" : 1,
            "componentType" : 5126,
            "count" : 7105,
            "type" : "VEC3"
        },
        {
            "bufferView" : 2,
            "componentType" : 5126,
            "count" : 7105,
            "type" : "VEC2"
        },
        {
            "bufferView" : 3,
            "componentType" : 5123,
            "count" : 25503,
            "type" : "SCALAR"
        }
    ],
    "bufferViews" : [
        {
            "buffer" : 0,
            "byteLength" : 85260,
            "byteOffset" : 0
        },
        {
            "buffer" : 0,
            "byteLength" : 85260,
            "byteOffset" : 85260
        },
        {
            "buffer" : 0,
            "byteLength" : 56840,
            "byteOffset" : 170520
        },
        {
            "buffer" : 0,
            "byteLength" : 51006,
            "byteOffset" : 227360
        }
    ],
    "buffers" : [
        {
            "byteLength" : 278368,
            "uri" : "data:application/octet-stream;base64,"
        }
    ]
}
