<?xml version="1.0" encoding="utf-8"?>

<!-- Uploaded to: SVG Repo, www.svgrepo.com, Generator: SVG Repo Mixer Tools -->
<svg fill="#000000" height="800px" width="800px" version="1.1" id="Icons" xmlns="http://www.w3.org/2000/svg" xmlns:xlink="http://www.w3.org/1999/xlink" 
	 viewBox="0 0 32 32" xml:space="preserve">
<path d="M16,2C8.3,2,2,8.3,2,16s6.3,14,14,14s14-6.3,14-14S23.7,2,16,2z M20,12c0-0.6,0.4-1,1-1s1,0.4,1,1v2c0,0.6-0.4,1-1,1
	s-1-0.4-1-1V12z M10,12c0-0.6,0.4-1,1-1s1,0.4,1,1v2c0,0.6-0.4,1-1,1s-1-0.4-1-1V12z M23.5,22.9c-0.8,0.7-1.8,1.1-2.9,1.1
	c-0.2,0-0.4,0-0.6,0c-2.6-0.4-5.3-0.4-8,0c-1.3,0.2-2.6-0.2-3.5-1c-0.9-0.8-1.5-2-1.5-3.3c0-2.1,1.6-4,3.8-4.3c3.5-0.5,7-0.5,10.5,0
	c2.2,0.3,3.8,2.1,3.8,4.3C25,20.9,24.5,22.1,23.5,22.9z"/>
</svg>