<?xml version="1.0" encoding="utf-8"?>

<!-- Uploaded to: SVG Repo, www.svgrepo.com, Generator: SVG Repo Mixer Tools -->
<svg fill="#000000" height="800px" width="800px" version="1.1" id="Icons" xmlns="http://www.w3.org/2000/svg" xmlns:xlink="http://www.w3.org/1999/xlink" 
	 viewBox="0 0 32 32" xml:space="preserve">
<path d="M16,2C8.3,2,2,8.3,2,16s6.3,14,14,14s14-6.3,14-14S23.7,2,16,2z M11,18c0,0.6-0.4,1-1,1s-1-0.4-1-1v-5c0-0.6,0.4-1,1-1
	s1,0.4,1,1V18z M18.8,20.4c0.4,0.4,0.4,1,0,1.4c-0.2,0.2-0.5,0.3-0.7,0.3s-0.5-0.1-0.7-0.3L16,20.4l-1.4,1.4
	c-0.2,0.2-0.5,0.3-0.7,0.3s-0.5-0.1-0.7-0.3c-0.4-0.4-0.4-1,0-1.4l1.4-1.4l-1.4-1.4c-0.4-0.4-0.4-1,0-1.4c0.4-0.4,1-0.4,1.4,0
	l1.4,1.4l1.4-1.4c0.4-0.4,1-0.4,1.4,0c0.4,0.4,0.4,1,0,1.4L17.4,19L18.8,20.4z M23,18c0,0.6-0.4,1-1,1s-1-0.4-1-1v-5
	c0-0.6,0.4-1,1-1s1,0.4,1,1V18z"/>
</svg>